Simulation
nRows=42
nColumns=15
endheader
time  TH_x TH_y TH_z SC_y  SC_z  SC_x  AC_y  AC_z  AC_x  GH_y  GH_z  GH_yy  EL_x  PS_y
8.073123595505619  0.000000  0.000000  0.000000  -17.244775605235834  1.4802006015114069  -1.1953890104882479  54.27342982487824  13.97871055959746  1.6652886554040178  -150.73368516239128  3.1735804870445845  -155.847997141099  16.791907319207066  120.000000
8.113288389513109  0.000000  0.000000  0.000000  -17.185609111621098  2.062859260387294  -0.577686360131346  54.18615837393183  13.552443631855256  1.8428739926668067  -155.819243164801  2.9690073224919984  -150.83285442543234  16.30496336511177  120.000000
8.153453183520599  0.000000  0.000000  0.000000  -17.171836837324086  2.699251908792172  0.06562300228310124  54.10421628993248  13.146120919428776  2.069010743026191  -164.90360955235576  2.6434726568306814  -141.99450261495898  15.757058900006877  120.000000
8.19361797752809  0.000000  0.000000  0.000000  -17.21568258649729  3.3968729442145444  0.7484459502854642  54.03143975723563  12.777574248088449  2.355339016897018  179.44233353905022  2.2708602593286886  -126.75792768323548  15.169071612186885  120.000000
8.23378277153558  0.000000  0.000000  0.000000  -17.332387880079  4.15987975501429  1.4804000770781975  53.97161424231079  12.459245687956086  2.7126852442224445  153.776037980904  2.0509510145308654  -101.67777672047471  14.565762738453023  120.000000
8.273947565543072  0.000000  0.000000  0.000000  -17.536661444208253  4.987535231647797  2.2704204439166418  53.93046295102759  12.199727718850454  3.1508463545454655  122.35608478984548  2.3163926830351063  -71.00871398645052  13.971897852803007  120.000000
8.314112359550561  0.000000  0.000000  0.000000  -17.84090709918458  5.87540661493196  3.1262157254611074  53.91524186441454  12.003784522491728  3.677571746386989  98.19107392088264  3.1978576902129316  -47.75160233689033  13.409593981062319  120.000000
8.354277153558053  0.000000  0.000000  0.000000  -18.254296290120923  6.815701036507695  4.052513992585911  53.93323802974755  11.871654290889168  4.297681901078978  83.42784081027673  4.548325983220749  -34.04138890955258  12.895189570946751  120.000000
8.394441947565543  0.000000  0.000000  0.000000  -18.781826125621006  7.7957878857995295  5.050326521534525  53.99119285654201  11.798952940957067  5.013340696452091  74.26209004336428  6.230407634442934  -26.05715741389125  12.437694427666294  120.000000
8.434606741573035  0.000000  0.000000  0.000000  -19.42353887702713  8.79956989871889  6.116727928399095  54.0956120421301  11.77717870883103  5.823981386556355  68.10302700611238  8.166177543252822  -21.188172680226497  12.03987667545998  120.000000
8.474771535580524  0.000000  0.000000  0.000000  -20.17477823866227  9.809289168731837  7.245400050811258  54.253425995875496  11.79569820401181  6.725611797948171  63.65170709942931  10.30426663788026  -18.113422828403134  11.699758758130871  120.000000
8.514936329588014  0.000000  0.000000  0.000000  -21.026962597467225  10.807533734050613  8.427288312581933  54.470867907445786  11.843901611152294  7.710507321222789  60.24664703356043  12.60297014754443  -16.14966309933786  11.412371463438696  120.000000
8.555101123595506  0.000000  0.000000  0.000000  -21.968991767158215  11.77912223439201  9.65146531633618  54.751507326094284  11.912501177688936  8.767762127011853  57.52526770938888  15.024241412412927  -14.914794463807116  11.171191747737723  120.000000
8.595265917602996  0.000000  0.000000  0.000000  -22.989038609344686  12.711726288430349  10.906023198747622  55.095139329538725  11.994377442915214  9.883552874292176  55.27264237100417  17.532087491402443  -14.178026901972677  10.96951127916338  120.000000
8.635430711610487  0.000000  0.000000  0.000000  -24.075486883146095  13.59601225557476  12.178735909092744  55.49758582495556  12.084912041681193  11.041566642628906  53.352695430052876  20.092376598686123  -13.791677688295957  10.80125947269122  120.000000
8.675595505617977  0.000000  0.000000  0.000000  -25.2172326452754  14.42528104783283  13.457428945986624  55.95109534733432  12.181808410899508  12.223760626503575  51.6742778608019  22.67295668776989  -13.656882900447508  10.661437542119016  120.000000
8.715760299625469  0.000000  0.000000  0.000000  -26.403452885405795  15.194977360256393  14.730086413100047  56.44495701049729  12.284475109191767  13.41130854615013  50.173942642624056  25.243755766778964  -13.705582584275833  10.5462290129088  120.000000
8.755925093632959  0.000000  0.000000  0.000000  -27.623098457315585  15.902291337738802  15.98470269567607  56.96644720758203  12.393264313448233  14.585539141541696  48.80649097886534  27.77687870077228  -13.88989751607741  10.452919983455999  120.000000
8.79608988764045  0.000000  0.000000  0.000000  -28.864419811641614  16.54583516318353  17.209191179235443  57.5018300840431  12.508757285091553  15.728766499128247  47.5398108700048  30.246661180315712  -14.175836289398168  10.379763555066  120.000000
8.83625468164794  0.000000  0.000000  0.000000  -30.11465195051939  17.125451701555082  18.391349645965995  58.037384527732826  12.631279367568359  16.82498206531198  46.35152187367493  32.62988668524212  -14.538795787651315  10.325695346757295  120.000000
8.87641947565543  0.000000  0.000000  0.000000  -31.3601225631727  17.642055100459196  19.519246769989003  58.56013093499976  12.760691213269299  17.860434158717773  45.22675156594316  34.90605080655338  -14.960413019265898  10.289936460328041  120.000000
8.916584269662922  0.000000  0.000000  0.000000  -32.5866398986455  18.097484009488312  20.581806369178786  59.05831964656927  12.896564515796955  18.82390771030918  44.15613905181514  37.05779706065479  -15.425746219410055  10.271489945607607  120.000000
8.956749063670411  0.000000  0.000000  0.000000  -33.77999529318918  18.494318677226765  21.569641878258878  59.52187954058195  13.038294548204645  19.707070765204886  43.13497485289269  39.07134381989893  -15.921597763625433  10.26875048577618  120.000000
8.996913857677903  0.000000  0.000000  0.000000  -34.92594561505603  18.83517863743243  22.475575423351998  59.942818978765466  13.18512766419166  20.504995502612175  42.16289682991657  40.93695993127029  -16.435429196397273  10.279301810069265  120.000000
9.037078651685393  0.000000  0.000000  0.000000  -36.01072211590988  19.122397860197733  23.295006554010946  60.31532584271459  13.336450293062006  21.216254234563298  41.24266458511959  42.64880649409837  -16.95396591543706  10.29981959815266  120.000000
9.077243445692885  0.000000  0.000000  0.000000  -37.0222363783224  19.358253504062997  24.02623544283365  60.63528956511018  13.491970089187518  21.841892528621  40.37873238508379  44.20444916398757  -17.46232850321693  10.325957147383145  120.000000
9.117408239700374  0.000000  0.000000  0.000000  -37.950394538912796  19.54474975735358  24.670180135184093  60.89973390934214  13.651441005260237  22.384435904145068  39.57645185405428  45.60416514611072  -17.944512765576683  10.352743260391229  120.000000
9.157573033707866  0.000000  0.000000  0.000000  -38.78667157405849  19.683579166500408  25.229644811031932  61.106921904722725  13.814243940437809  22.8471803940746  38.842090364917766  46.849875483651864  -18.384712750692152  10.375311614897665  120.000000
9.197737827715356  0.000000  0.000000  0.000000  -39.52326219038336  19.77628132918751  25.708218763950057  61.256593842966524  13.978935811285545  23.23347354953472  38.18302181454535  47.9439617826834  -18.76901549325752  10.389850983942512  120.000000
9.237902621722846  0.000000  0.000000  0.000000  -40.152151380564995  19.82436017809025  26.109175536289886  61.35022756474239  14.142953227073695  23.546128623792622  37.607700360748474  48.887990897675316  -19.086707813854346  10.39424434941385  120.000000
9.278067415730337  0.000000  0.000000  0.000000  -40.66447582253477  19.82955027429815  26.434571546602612  61.391081138593044  14.302544216329169  23.786984602630348  37.1255363691169  49.6817473762202  -19.33122245331223  10.388397181745939  120.000000
9.318232209737827  0.000000  0.000000  0.000000  -41.05021394500534  19.793863016711615  26.684724730828766  61.383998008365964  14.452979803456117  23.956696501156475  36.74638491023695  50.32268365610075  -19.500103835213498  10.373908471747196  120.000000
9.358397003745319  0.000000  0.000000  0.000000  -41.298475674082574  19.719633604006386  26.858104540799168  61.33486551102564  14.589000610350027  24.054686255573518  36.47995859314833  50.8058139544209  -19.594502521377663  10.353299683956713  120.000000
9.398561797752809  0.000000  0.000000  0.000000  -41.39815120899486  19.60939767453535  26.95147585900614  61.24992763648698  14.705325923038899  24.079200906558548  36.3349672604898  51.124024884830646  -19.617945047926625  10.328962277920542  120.000000
9.4387265917603  0.000000  0.000000  0.000000  -41.33884002554844  19.46569456202752  26.960179079906517  61.13500075720018  14.797185152110693  24.0274250289392  36.318424066235515  51.26853331253665  -19.575257744049512  10.302164007280071  120.000000
9.47889138576779  0.000000  0.000000  0.000000  -41.111860708917106  19.29089030501176  26.878405564687853  60.99487103766044  14.860664529174317  23.89561150664032  36.43497625009467  51.2295040078202  -19.47128041099776  10.272414725208641  120.000000
9.519056179775282  0.000000  0.000000  0.000000  -40.711033043167824  19.08687768198119  26.699375963252894  60.832936955373256  14.893000317554913  23.67919421916564  36.686600630207394  50.99657992304556  -19.310270671901307  10.237405942849163  120.000000
9.559220973782772  0.000000  0.000000  0.000000  -40.13334458463274  18.855005083674694  26.41547257726965  60.65118799023327  14.892608038191321  23.37297203150998  37.07251469972884  50.55938331486721  -19.09536043019785  10.193773412553325  120.000000
9.599385767790261  0.000000  0.000000  0.000000  -39.37930857304114  18.595800086613647  26.018432904288648  60.45044879177545  14.85912224656799  22.971130660479048  37.58925853031628  49.90801200329047  -18.828674525158  10.138305889104137  120.000000
9.639550561797753  0.000000  0.000000  0.000000  -38.4536539116167  18.30882408666521  25.499718157527344  60.23037229527866  14.793151573492532  22.46763337966598  38.230571777758115  49.03352119836432  -18.511017369954086  10.069562032859336  120.000000
9.679715355805243  0.000000  0.000000  0.000000  -37.3659638754119  17.99240691024949  24.851064134048226  59.98944014446633  14.696400417519957  21.856158697155543  38.986848616959946  47.928679895078346  -18.141693679610356  9.98913902892524  120.000000
9.719880149812735  0.000000  0.000000  0.000000  -36.13118522833676  17.643509348581308  24.065379441810308  59.72484622974489  14.571462753658706  21.130965506958503  39.844970037497134  46.58864951735828  -17.718001774181737  9.90276297714855  120.000000
